<svg xmlns="http://www.w3.org/2000/svg" xmlns:xlink="http://www.w3.org/1999/xlink" width="500" zoomAndPan="magnify" viewBox="0 0 375 374.999991" height="500" preserveAspectRatio="xMidYMid meet" version="1.0"><defs><clipPath id="934e04efa1"><path d="M 52.207031 72 L 322.957031 72 L 322.957031 302.886719 L 52.207031 302.886719 Z M 52.207031 72 " clip-rule="nonzero"/></clipPath></defs><g clip-path="url(#934e04efa1)"><path fill="#213555" d="M 319.511719 266.046875 C 319.511719 284.71875 304.371094 299.855469 285.699219 299.855469 L 89.289062 299.855469 C 70.617188 299.855469 55.488281 284.71875 55.488281 266.046875 L 55.488281 109.082031 C 55.488281 90.40625 70.617188 75.273438 89.289062 75.273438 L 137.179688 75.273438 L 137.179688 75.324219 C 137.179688 82.441406 142.949219 88.210938 150.0625 88.210938 L 224.929688 88.210938 C 232.042969 88.210938 237.8125 82.441406 237.8125 75.324219 L 237.8125 75.273438 L 285.699219 75.273438 C 304.371094 75.273438 319.511719 90.40625 319.511719 109.082031 Z M 285.699219 72.011719 L 237.8125 72.011719 C 236.011719 72.011719 234.550781 73.523438 234.550781 75.324219 C 234.550781 80.632812 230.234375 84.949219 224.929688 84.949219 L 150.0625 84.949219 C 144.757812 84.949219 140.441406 80.632812 140.441406 75.273438 C 140.441406 73.472656 138.984375 72.011719 137.179688 72.011719 L 89.289062 72.011719 C 68.855469 72.011719 52.226562 88.640625 52.226562 109.082031 L 52.226562 266.046875 C 52.226562 286.488281 68.855469 303.117188 89.289062 303.117188 L 285.699219 303.117188 C 306.136719 303.117188 322.773438 286.488281 322.773438 266.046875 L 322.773438 109.082031 C 322.773438 88.640625 306.136719 72.011719 285.699219 72.011719 " fill-opacity="1" fill-rule="nonzero"/></g><path fill="#213555" d="M 316.25 266.046875 C 316.25 282.890625 302.546875 296.59375 285.699219 296.59375 L 89.289062 296.59375 C 72.445312 296.59375 58.75 282.890625 58.75 266.046875 L 58.75 109.082031 C 58.75 92.238281 72.445312 78.535156 89.289062 78.535156 L 134.238281 78.535156 C 135.734375 85.90625 142.261719 91.472656 150.0625 91.472656 L 224.929688 91.472656 C 232.722656 91.472656 239.238281 85.921875 240.746094 78.535156 L 285.699219 78.535156 C 302.546875 78.535156 316.25 92.238281 316.25 109.082031 Z M 285.699219 75.273438 L 237.8125 75.273438 L 237.8125 75.324219 C 237.8125 82.441406 232.042969 88.210938 224.929688 88.210938 L 150.0625 88.210938 C 142.949219 88.210938 137.179688 82.441406 137.179688 75.324219 L 137.179688 75.273438 L 89.289062 75.273438 C 70.617188 75.273438 55.488281 90.40625 55.488281 109.082031 L 55.488281 266.046875 C 55.488281 284.71875 70.617188 299.855469 89.289062 299.855469 L 285.699219 299.855469 C 304.371094 299.855469 319.511719 284.71875 319.511719 266.046875 L 319.511719 109.082031 C 319.511719 90.40625 304.371094 75.273438 285.699219 75.273438 " fill-opacity="1" fill-rule="nonzero"/><path fill="#213555" d="M 263.238281 97.695312 C 261.433594 97.695312 259.976562 99.160156 259.976562 100.957031 C 259.976562 102.761719 261.433594 104.21875 263.238281 104.21875 C 264.457031 104.21875 265.636719 104.339844 266.804688 104.523438 L 263.238281 100.957031 C 277.636719 100.957031 289.3125 112.632812 289.3125 127.03125 L 285.742188 123.460938 C 285.925781 124.628906 286.050781 125.8125 286.050781 127.03125 C 286.050781 128.835938 287.511719 130.292969 289.3125 130.292969 C 291.113281 130.292969 292.570312 128.835938 292.570312 127.03125 C 292.570312 110.855469 279.414062 97.695312 263.238281 97.695312 " fill-opacity="1" fill-rule="nonzero"/><path fill="#213555" d="M 263.238281 100.957031 L 266.804688 104.523438 C 276.527344 106.0625 284.203125 113.742188 285.742188 123.460938 L 289.3125 127.03125 C 289.3125 112.632812 277.636719 100.957031 263.238281 100.957031 " fill-opacity="1" fill-rule="nonzero"/><path fill="#213555" d="M 85.683594 130.292969 C 87.480469 130.292969 88.945312 128.835938 88.945312 127.03125 C 88.945312 125.8125 89.066406 124.625 89.25 123.460938 L 85.683594 127.03125 C 85.683594 112.632812 97.351562 100.957031 111.753906 100.957031 L 108.183594 104.523438 C 109.347656 104.339844 110.535156 104.21875 111.753906 104.21875 C 113.554688 104.21875 115.015625 102.761719 115.015625 100.957031 C 115.015625 99.160156 113.554688 97.695312 111.753906 97.695312 C 95.578125 97.695312 82.421875 110.855469 82.421875 127.03125 C 82.421875 128.835938 83.878906 130.292969 85.683594 130.292969 " fill-opacity="1" fill-rule="nonzero"/><path fill="#213555" d="M 85.683594 127.03125 L 89.25 123.460938 C 90.789062 113.742188 98.464844 106.0625 108.183594 104.523438 L 111.753906 100.957031 C 97.351562 100.957031 85.683594 112.632812 85.683594 127.03125 " fill-opacity="1" fill-rule="nonzero"/><path fill="#213555" d="M 111.753906 270.910156 C 110.535156 270.910156 109.347656 270.78125 108.1875 270.597656 L 111.753906 274.171875 C 97.351562 274.171875 85.683594 262.496094 85.683594 248.09375 L 89.25 251.664062 C 89.066406 250.5 88.945312 249.3125 88.945312 248.09375 C 88.945312 246.292969 87.480469 244.832031 85.683594 244.832031 C 83.878906 244.832031 82.421875 246.292969 82.421875 248.09375 C 82.421875 264.273438 95.578125 277.433594 111.753906 277.433594 C 113.554688 277.433594 115.015625 275.96875 115.015625 274.171875 C 115.015625 272.367188 113.554688 270.910156 111.753906 270.910156 " fill-opacity="1" fill-rule="nonzero"/><path fill="#213555" d="M 111.753906 274.171875 L 108.1875 270.597656 C 98.464844 269.058594 90.789062 261.382812 89.25 251.664062 L 85.683594 248.09375 C 85.683594 262.496094 97.351562 274.171875 111.753906 274.171875 " fill-opacity="1" fill-rule="nonzero"/><path fill="#213555" d="M 289.3125 244.832031 C 287.511719 244.832031 286.050781 246.292969 286.050781 248.09375 C 286.050781 249.3125 285.925781 250.5 285.742188 251.664062 L 289.3125 248.09375 C 289.3125 262.496094 277.636719 274.171875 263.238281 274.171875 L 266.804688 270.597656 C 265.636719 270.78125 264.457031 270.910156 263.238281 270.910156 C 261.433594 270.910156 259.976562 272.367188 259.976562 274.171875 C 259.976562 275.96875 261.433594 277.433594 263.238281 277.433594 C 279.414062 277.433594 292.570312 264.273438 292.570312 248.09375 C 292.570312 246.292969 291.113281 244.832031 289.3125 244.832031 " fill-opacity="1" fill-rule="nonzero"/><path fill="#213555" d="M 289.3125 248.09375 L 285.742188 251.664062 C 284.203125 261.382812 276.527344 269.058594 266.804688 270.597656 L 263.238281 274.171875 C 277.636719 274.171875 289.3125 262.496094 289.3125 248.09375 " fill-opacity="1" fill-rule="nonzero"/><path fill="#213555" d="M 190.757812 120.441406 L 184.234375 120.441406 L 184.234375 125.820312 L 190.757812 125.820312 L 190.757812 120.441406 " fill-opacity="1" fill-rule="nonzero"/><path fill="#213555" d="M 189.804688 160.242188 L 190.757812 161.199219 L 190.757812 132.34375 L 184.234375 132.34375 L 184.234375 161.199219 L 185.191406 160.242188 C 186.460938 158.96875 188.53125 158.96875 189.804688 160.242188 " fill-opacity="1" fill-rule="nonzero"/><path fill="#213555" d="M 184.78125 164.355469 C 184.738281 164.292969 184.714844 164.222656 184.679688 164.160156 C 184.605469 164.039062 184.535156 163.921875 184.484375 163.792969 C 184.445312 163.699219 184.421875 163.597656 184.394531 163.5 C 184.363281 163.398438 184.320312 163.296875 184.300781 163.1875 C 184.261719 162.984375 184.238281 162.78125 184.238281 162.578125 C 184.238281 162.566406 184.234375 162.5625 184.234375 162.550781 L 184.234375 161.199219 L 163.90625 181.53125 L 163.90625 190.753906 L 187.496094 167.164062 L 185.203125 164.863281 C 185.046875 164.710938 184.902344 164.539062 184.78125 164.355469 " fill-opacity="1" fill-rule="nonzero"/><path fill="#213555" d="M 185.191406 160.242188 L 184.234375 161.199219 L 184.234375 162.550781 C 184.234375 161.714844 184.554688 160.878906 185.191406 160.242188 " fill-opacity="1" fill-rule="nonzero"/><path fill="#213555" d="M 184.394531 163.5 C 184.363281 163.390625 184.320312 163.296875 184.300781 163.1875 C 184.320312 163.296875 184.363281 163.398438 184.394531 163.5 " fill-opacity="1" fill-rule="nonzero"/><path fill="#213555" d="M 184.78125 164.355469 C 184.902344 164.539062 185.046875 164.710938 185.203125 164.863281 L 185.191406 164.855469 C 185.035156 164.703125 184.898438 164.527344 184.78125 164.355469 " fill-opacity="1" fill-rule="nonzero"/><path fill="#213555" d="M 184.234375 162.550781 C 184.234375 162.5625 184.238281 162.566406 184.238281 162.578125 C 184.238281 162.566406 184.234375 162.554688 184.234375 162.550781 " fill-opacity="1" fill-rule="nonzero"/><path fill="#213555" d="M 184.679688 164.160156 C 184.605469 164.039062 184.535156 163.921875 184.484375 163.792969 C 184.535156 163.921875 184.605469 164.039062 184.679688 164.160156 " fill-opacity="1" fill-rule="nonzero"/><path fill="#213555" d="M 160.644531 234.792969 C 153.917969 246.105469 142.410156 252.265625 124.183594 247.707031 C 106.394531 243.25 97.984375 215.605469 105.410156 185.953125 C 112.832031 156.304688 133.265625 135.878906 151.058594 140.332031 C 154.359375 141.15625 157.738281 145.9375 160.644531 153.0625 L 160.644531 184.792969 L 163.90625 181.53125 L 163.90625 153.0625 C 163.90625 152.644531 163.824219 152.222656 163.660156 151.832031 C 160.140625 143.183594 156.167969 138.253906 151.851562 137.167969 C 149.976562 136.699219 148.035156 136.457031 146.089844 136.457031 C 127.746094 136.457031 109.304688 156.945312 102.246094 185.164062 C 98.515625 200.070312 98.503906 215.007812 102.21875 227.230469 C 106.113281 240.03125 113.628906 248.425781 123.394531 250.867188 C 127.664062 251.9375 131.746094 252.480469 135.535156 252.480469 C 147.5625 252.480469 157.214844 246.941406 163.445312 236.457031 C 163.746094 235.953125 163.90625 235.382812 163.90625 234.792969 L 163.90625 190.753906 L 160.644531 194.015625 L 160.644531 234.792969 " fill-opacity="1" fill-rule="nonzero"/><path fill="#213555" d="M 160.644531 184.792969 L 160.644531 194.015625 L 163.90625 190.753906 L 163.90625 181.53125 L 160.644531 184.792969 " fill-opacity="1" fill-rule="nonzero"/><path fill="#213555" d="M 151.058594 140.332031 C 133.265625 135.878906 112.832031 156.304688 105.410156 185.953125 C 97.984375 215.605469 106.394531 243.25 124.183594 247.707031 C 142.410156 252.265625 153.917969 246.105469 160.644531 234.792969 L 160.644531 194.015625 L 157.886719 196.773438 C 157.882812 196.773438 157.882812 196.773438 157.882812 196.777344 L 157.382812 197.277344 L 157.382812 233.875 C 150.589844 244.648438 139.652344 248.214844 124.980469 244.539062 C 117.527344 242.675781 111.664062 235.851562 108.460938 225.328125 C 105.082031 214.222656 105.125 200.523438 108.574219 186.75 C 114.816406 161.796875 130.941406 142.980469 146.089844 142.980469 C 147.503906 142.980469 148.914062 143.15625 150.269531 143.496094 C 151.746094 143.863281 154.472656 146.773438 157.382812 153.710938 L 157.382812 188.054688 L 160.644531 184.792969 L 160.644531 153.0625 C 157.738281 145.9375 154.359375 141.15625 151.058594 140.332031 " fill-opacity="1" fill-rule="nonzero"/><path fill="#213555" d="M 157.382812 191.660156 L 157.882812 192.160156 C 157.882812 192.160156 157.882812 192.167969 157.882812 192.167969 C 159.15625 193.433594 159.15625 195.5 157.886719 196.773438 L 160.644531 194.015625 L 160.644531 184.792969 L 157.382812 188.054688 L 157.382812 191.660156 " fill-opacity="1" fill-rule="nonzero"/><path fill="#213555" d="M 153.273438 192.160156 L 155.578125 189.859375 L 141.742188 176.019531 L 141.742188 177.371094 C 141.742188 179.175781 140.277344 180.632812 138.480469 180.632812 L 137.128906 180.632812 L 150.964844 194.46875 L 153.269531 192.167969 C 153.269531 192.160156 153.273438 192.160156 153.273438 192.160156 " fill-opacity="1" fill-rule="nonzero"/><path fill="#213555" d="M 153.273438 192.160156 C 154.390625 191.050781 156.113281 190.914062 157.382812 191.753906 L 157.382812 191.660156 L 155.578125 189.859375 L 153.273438 192.160156 " fill-opacity="1" fill-rule="nonzero"/><path fill="#213555" d="M 157.882812 192.160156 L 157.382812 191.660156 L 157.382812 191.753906 C 157.554688 191.871094 157.722656 192.007812 157.882812 192.160156 " fill-opacity="1" fill-rule="nonzero"/><path fill="#213555" d="M 155.578125 197.730469 C 154.742188 197.730469 153.90625 197.414062 153.269531 196.777344 L 150.964844 194.46875 L 137.128906 208.304688 L 138.480469 208.304688 C 140.277344 208.304688 141.742188 209.761719 141.742188 211.566406 L 141.742188 212.917969 L 157.382812 197.277344 L 157.382812 197.1875 C 156.835938 197.546875 156.203125 197.730469 155.578125 197.730469 " fill-opacity="1" fill-rule="nonzero"/><path fill="#213555" d="M 157.382812 197.1875 L 157.382812 197.277344 L 157.882812 196.777344 C 157.882812 196.773438 157.882812 196.773438 157.886719 196.773438 L 157.882812 196.777344 C 157.722656 196.929688 157.554688 197.070312 157.382812 197.1875 " fill-opacity="1" fill-rule="nonzero"/><path fill="#213555" d="M 157.882812 192.167969 C 157.882812 192.167969 157.882812 192.160156 157.882812 192.160156 L 157.882812 192.167969 C 159.15625 193.441406 159.15625 195.503906 157.882812 196.777344 L 157.886719 196.773438 C 159.15625 195.5 159.15625 193.433594 157.882812 192.167969 " fill-opacity="1" fill-rule="nonzero"/><path fill="#213555" d="M 153.269531 192.167969 L 153.273438 192.160156 C 153.273438 192.160156 153.269531 192.160156 153.269531 192.167969 L 150.964844 194.46875 L 153.269531 196.777344 C 151.996094 195.503906 151.996094 193.441406 153.269531 192.167969 " fill-opacity="1" fill-rule="nonzero"/><path fill="#213555" d="M 153.273438 192.160156 L 153.269531 192.167969 C 151.996094 193.441406 151.996094 195.503906 153.269531 196.777344 C 153.90625 197.414062 154.742188 197.730469 155.578125 197.730469 C 156.203125 197.730469 156.835938 197.546875 157.382812 197.1875 L 157.382812 191.753906 C 156.113281 190.914062 154.390625 191.050781 153.273438 192.160156 " fill-opacity="1" fill-rule="nonzero"/><path fill="#213555" d="M 157.382812 197.1875 C 157.554688 197.070312 157.722656 196.929688 157.882812 196.777344 C 159.15625 195.503906 159.15625 193.441406 157.882812 192.167969 L 157.882812 192.160156 C 157.722656 192.007812 157.554688 191.871094 157.382812 191.753906 L 157.382812 197.1875 " fill-opacity="1" fill-rule="nonzero"/><path fill="#213555" d="M 124.535156 211.566406 C 124.535156 213.367188 125.992188 214.828125 127.796875 214.828125 L 135.21875 214.828125 L 135.21875 211.566406 C 135.21875 211.355469 135.238281 211.140625 135.28125 210.925781 C 135.300781 210.839844 135.332031 210.757812 135.355469 210.671875 C 135.390625 210.554688 135.421875 210.429688 135.46875 210.3125 C 135.507812 210.222656 135.558594 210.140625 135.605469 210.050781 C 135.660156 209.953125 135.707031 209.851562 135.769531 209.753906 C 135.855469 209.625 135.957031 209.515625 136.058594 209.398438 C 136.101562 209.355469 136.128906 209.304688 136.171875 209.257812 L 137.128906 208.304688 L 127.796875 208.304688 C 125.992188 208.304688 124.535156 209.761719 124.535156 211.566406 " fill-opacity="1" fill-rule="nonzero"/><path fill="#213555" d="M 135.605469 210.050781 C 135.660156 209.953125 135.707031 209.84375 135.769531 209.753906 C 135.707031 209.851562 135.660156 209.953125 135.605469 210.050781 " fill-opacity="1" fill-rule="nonzero"/><path fill="#213555" d="M 135.355469 210.671875 C 135.390625 210.554688 135.421875 210.429688 135.46875 210.3125 C 135.421875 210.429688 135.390625 210.554688 135.355469 210.671875 " fill-opacity="1" fill-rule="nonzero"/><path fill="#213555" d="M 136.058594 209.398438 C 136.65625 208.734375 137.515625 208.304688 138.480469 208.304688 C 140.277344 208.304688 141.742188 209.761719 141.742188 211.566406 C 141.742188 209.761719 140.277344 208.304688 138.480469 208.304688 L 137.128906 208.304688 L 136.171875 209.257812 C 136.128906 209.304688 136.101562 209.355469 136.058594 209.398438 " fill-opacity="1" fill-rule="nonzero"/><path fill="#213555" d="M 135.28125 210.925781 C 135.238281 211.140625 135.21875 211.355469 135.21875 211.566406 C 135.21875 211.347656 135.238281 211.132812 135.28125 210.925781 " fill-opacity="1" fill-rule="nonzero"/><path fill="#213555" d="M 140.777344 213.875 C 140.628906 214.027344 140.460938 214.160156 140.289062 214.277344 C 140.207031 214.328125 140.121094 214.371094 140.035156 214.417969 C 139.933594 214.472656 139.835938 214.535156 139.730469 214.578125 C 139.621094 214.621094 139.507812 214.644531 139.398438 214.679688 C 139.304688 214.707031 139.214844 214.742188 139.117188 214.761719 C 138.90625 214.804688 138.695312 214.828125 138.480469 214.828125 L 135.21875 214.828125 L 135.21875 222.246094 C 135.21875 224.046875 136.675781 225.511719 138.476562 225.511719 C 138.480469 225.511719 138.480469 225.511719 138.480469 225.511719 C 140.277344 225.511719 141.742188 224.046875 141.742188 222.25 L 141.742188 212.917969 L 140.785156 213.871094 C 140.785156 213.875 140.777344 213.875 140.777344 213.875 " fill-opacity="1" fill-rule="nonzero"/><path fill="#213555" d="M 138.480469 214.828125 C 138.695312 214.828125 138.90625 214.804688 139.117188 214.761719 C 138.914062 214.804688 138.699219 214.828125 138.480469 214.828125 " fill-opacity="1" fill-rule="nonzero"/><path fill="#213555" d="M 140.035156 214.417969 C 140.121094 214.371094 140.207031 214.328125 140.289062 214.277344 C 140.207031 214.328125 140.121094 214.371094 140.035156 214.417969 " fill-opacity="1" fill-rule="nonzero"/><path fill="#213555" d="M 139.398438 214.679688 C 139.507812 214.644531 139.621094 214.621094 139.730469 214.578125 C 139.621094 214.621094 139.507812 214.644531 139.398438 214.679688 " fill-opacity="1" fill-rule="nonzero"/><path fill="#213555" d="M 140.777344 213.875 C 140.777344 213.875 140.785156 213.875 140.785156 213.871094 L 141.742188 212.917969 L 141.742188 211.566406 C 141.742188 212.46875 141.375 213.285156 140.777344 213.875 " fill-opacity="1" fill-rule="nonzero"/><path fill="#213555" d="M 135.46875 210.3125 C 135.503906 210.222656 135.558594 210.140625 135.605469 210.050781 C 135.558594 210.140625 135.507812 210.222656 135.46875 210.3125 " fill-opacity="1" fill-rule="nonzero"/><path fill="#213555" d="M 135.28125 210.925781 C 135.300781 210.839844 135.335938 210.757812 135.355469 210.671875 C 135.332031 210.757812 135.300781 210.839844 135.28125 210.925781 " fill-opacity="1" fill-rule="nonzero"/><path fill="#213555" d="M 139.730469 214.578125 C 139.835938 214.535156 139.933594 214.472656 140.035156 214.417969 C 139.933594 214.472656 139.835938 214.535156 139.730469 214.578125 " fill-opacity="1" fill-rule="nonzero"/><path fill="#213555" d="M 140.289062 214.277344 C 140.460938 214.160156 140.628906 214.027344 140.777344 213.875 C 140.625 214.027344 140.460938 214.160156 140.289062 214.277344 " fill-opacity="1" fill-rule="nonzero"/><path fill="#213555" d="M 135.769531 209.753906 C 135.855469 209.632812 135.957031 209.515625 136.058594 209.398438 C 135.957031 209.515625 135.855469 209.625 135.769531 209.753906 " fill-opacity="1" fill-rule="nonzero"/><path fill="#213555" d="M 139.117188 214.761719 C 139.214844 214.742188 139.304688 214.707031 139.398438 214.679688 C 139.304688 214.707031 139.214844 214.742188 139.117188 214.761719 " fill-opacity="1" fill-rule="nonzero"/><path fill="#213555" d="M 136.171875 213.871094 C 135.535156 213.234375 135.21875 212.402344 135.21875 211.566406 L 135.21875 214.828125 L 138.480469 214.828125 C 137.644531 214.828125 136.808594 214.507812 136.171875 213.871094 " fill-opacity="1" fill-rule="nonzero"/><path fill="#213555" d="M 138.480469 208.304688 C 137.515625 208.304688 136.65625 208.734375 136.058594 209.398438 C 135.957031 209.515625 135.855469 209.632812 135.769531 209.753906 C 135.707031 209.84375 135.660156 209.953125 135.605469 210.050781 C 135.558594 210.140625 135.503906 210.222656 135.46875 210.3125 C 135.421875 210.429688 135.390625 210.554688 135.355469 210.671875 C 135.335938 210.757812 135.300781 210.839844 135.28125 210.925781 C 135.238281 211.132812 135.21875 211.347656 135.21875 211.566406 C 135.21875 212.402344 135.535156 213.234375 136.171875 213.871094 C 136.808594 214.507812 137.644531 214.828125 138.480469 214.828125 C 138.699219 214.828125 138.914062 214.804688 139.117188 214.761719 C 139.214844 214.742188 139.304688 214.707031 139.398438 214.679688 C 139.507812 214.644531 139.621094 214.621094 139.730469 214.578125 C 139.835938 214.535156 139.933594 214.472656 140.035156 214.417969 C 140.121094 214.371094 140.207031 214.328125 140.289062 214.277344 C 140.460938 214.160156 140.625 214.027344 140.777344 213.875 C 141.375 213.285156 141.742188 212.46875 141.742188 211.566406 C 141.742188 209.761719 140.277344 208.304688 138.480469 208.304688 " fill-opacity="1" fill-rule="nonzero"/><path fill="#213555" d="M 139.117188 174.175781 C 139.214844 174.195312 139.304688 174.230469 139.402344 174.257812 C 139.507812 174.292969 139.621094 174.320312 139.730469 174.359375 C 139.835938 174.40625 139.9375 174.472656 140.042969 174.527344 C 140.125 174.574219 140.210938 174.609375 140.289062 174.660156 C 140.46875 174.78125 140.636719 174.914062 140.789062 175.066406 L 141.742188 176.019531 L 141.742188 166.695312 C 141.742188 164.890625 140.277344 163.433594 138.480469 163.433594 C 136.675781 163.433594 135.21875 164.890625 135.21875 166.695312 L 135.21875 174.109375 L 138.480469 174.109375 C 138.695312 174.109375 138.90625 174.136719 139.117188 174.175781 " fill-opacity="1" fill-rule="nonzero"/><path fill="#213555" d="M 139.402344 174.257812 C 139.507812 174.292969 139.621094 174.320312 139.730469 174.359375 C 139.621094 174.320312 139.507812 174.292969 139.402344 174.257812 " fill-opacity="1" fill-rule="nonzero"/><path fill="#213555" d="M 141.742188 177.371094 L 141.742188 176.019531 L 140.789062 175.066406 C 141.375 175.660156 141.742188 176.472656 141.742188 177.371094 " fill-opacity="1" fill-rule="nonzero"/><path fill="#213555" d="M 138.480469 174.109375 C 138.699219 174.109375 138.914062 174.136719 139.117188 174.175781 C 138.90625 174.136719 138.695312 174.109375 138.480469 174.109375 " fill-opacity="1" fill-rule="nonzero"/><path fill="#213555" d="M 140.042969 174.527344 C 140.125 174.574219 140.210938 174.609375 140.289062 174.660156 C 140.210938 174.609375 140.125 174.574219 140.042969 174.527344 " fill-opacity="1" fill-rule="nonzero"/><path fill="#213555" d="M 135.761719 179.179688 C 135.710938 179.105469 135.683594 179.023438 135.636719 178.941406 C 135.582031 178.835938 135.515625 178.730469 135.46875 178.621094 C 135.421875 178.511719 135.398438 178.40625 135.367188 178.292969 C 135.335938 178.203125 135.300781 178.109375 135.28125 178.011719 C 135.238281 177.800781 135.21875 177.585938 135.21875 177.371094 L 135.21875 174.109375 L 127.796875 174.109375 C 125.992188 174.109375 124.535156 175.574219 124.535156 177.371094 C 124.535156 179.175781 125.992188 180.632812 127.796875 180.632812 L 137.128906 180.632812 L 136.175781 179.683594 C 136.023438 179.53125 135.886719 179.363281 135.761719 179.179688 " fill-opacity="1" fill-rule="nonzero"/><path fill="#213555" d="M 135.761719 179.179688 C 135.71875 179.105469 135.683594 179.023438 135.636719 178.941406 C 135.683594 179.023438 135.710938 179.105469 135.761719 179.179688 " fill-opacity="1" fill-rule="nonzero"/><path fill="#213555" d="M 136.175781 179.683594 L 137.128906 180.632812 L 138.480469 180.632812 C 137.582031 180.632812 136.769531 180.269531 136.175781 179.683594 " fill-opacity="1" fill-rule="nonzero"/><path fill="#213555" d="M 135.46875 178.621094 C 135.421875 178.519531 135.398438 178.40625 135.367188 178.292969 C 135.398438 178.40625 135.421875 178.511719 135.46875 178.621094 " fill-opacity="1" fill-rule="nonzero"/><path fill="#213555" d="M 135.28125 178.011719 C 135.242188 177.804688 135.21875 177.589844 135.21875 177.371094 C 135.21875 177.585938 135.238281 177.800781 135.28125 178.011719 " fill-opacity="1" fill-rule="nonzero"/><path fill="#213555" d="M 136.171875 175.066406 C 136.808594 174.429688 137.644531 174.109375 138.480469 174.109375 L 135.21875 174.109375 L 135.21875 177.371094 C 135.21875 176.539062 135.535156 175.703125 136.171875 175.066406 " fill-opacity="1" fill-rule="nonzero"/><path fill="#213555" d="M 135.761719 179.179688 C 135.886719 179.363281 136.023438 179.53125 136.175781 179.683594 L 136.171875 179.679688 C 136.019531 179.527344 135.878906 179.359375 135.761719 179.179688 " fill-opacity="1" fill-rule="nonzero"/><path fill="#213555" d="M 139.730469 174.359375 C 139.835938 174.40625 139.9375 174.472656 140.042969 174.527344 C 139.9375 174.472656 139.835938 174.40625 139.730469 174.359375 " fill-opacity="1" fill-rule="nonzero"/><path fill="#213555" d="M 140.789062 175.066406 C 140.636719 174.914062 140.46875 174.78125 140.289062 174.660156 C 140.460938 174.777344 140.628906 174.910156 140.785156 175.066406 L 140.789062 175.066406 " fill-opacity="1" fill-rule="nonzero"/><path fill="#213555" d="M 135.636719 178.941406 C 135.582031 178.835938 135.515625 178.730469 135.46875 178.621094 C 135.515625 178.730469 135.582031 178.835938 135.636719 178.941406 " fill-opacity="1" fill-rule="nonzero"/><path fill="#213555" d="M 135.367188 178.292969 C 135.335938 178.203125 135.300781 178.109375 135.28125 178.011719 C 135.300781 178.109375 135.335938 178.203125 135.367188 178.292969 " fill-opacity="1" fill-rule="nonzero"/><path fill="#213555" d="M 139.117188 174.175781 C 139.214844 174.195312 139.304688 174.230469 139.402344 174.257812 C 139.304688 174.230469 139.214844 174.195312 139.117188 174.175781 " fill-opacity="1" fill-rule="nonzero"/><path fill="#213555" d="M 140.785156 175.066406 C 140.628906 174.910156 140.460938 174.777344 140.289062 174.660156 C 140.210938 174.609375 140.125 174.574219 140.042969 174.527344 C 139.9375 174.472656 139.835938 174.40625 139.730469 174.359375 C 139.621094 174.320312 139.507812 174.292969 139.402344 174.257812 C 139.304688 174.230469 139.214844 174.195312 139.117188 174.175781 C 138.914062 174.136719 138.699219 174.109375 138.480469 174.109375 C 137.644531 174.109375 136.808594 174.429688 136.171875 175.066406 C 135.535156 175.703125 135.21875 176.539062 135.21875 177.371094 C 135.21875 177.589844 135.242188 177.804688 135.28125 178.011719 C 135.300781 178.109375 135.335938 178.203125 135.367188 178.292969 C 135.398438 178.40625 135.421875 178.519531 135.46875 178.621094 C 135.515625 178.730469 135.582031 178.835938 135.636719 178.941406 C 135.683594 179.023438 135.71875 179.105469 135.761719 179.179688 C 135.878906 179.359375 136.019531 179.527344 136.171875 179.679688 L 136.175781 179.683594 C 136.769531 180.269531 137.582031 180.632812 138.480469 180.632812 C 140.277344 180.632812 141.742188 179.175781 141.742188 177.371094 C 141.742188 176.472656 141.375 175.660156 140.789062 175.066406 L 140.785156 175.066406 " fill-opacity="1" fill-rule="nonzero"/><path fill="#213555" d="M 190.757812 161.199219 L 190.757812 162.550781 C 190.757812 162.5625 190.757812 162.566406 190.757812 162.578125 C 190.753906 162.78125 190.734375 162.984375 190.695312 163.1875 C 190.671875 163.296875 190.636719 163.398438 190.601562 163.5 C 190.570312 163.601562 190.550781 163.699219 190.507812 163.792969 C 190.457031 163.921875 190.386719 164.039062 190.320312 164.160156 C 190.277344 164.226562 190.253906 164.292969 190.210938 164.355469 C 190.089844 164.539062 189.949219 164.710938 189.789062 164.863281 L 187.496094 167.164062 L 211.09375 190.753906 L 211.09375 181.53125 L 190.757812 161.199219 " fill-opacity="1" fill-rule="nonzero"/><path fill="#213555" d="M 190.695312 163.1875 C 190.671875 163.296875 190.636719 163.398438 190.601562 163.5 C 190.636719 163.398438 190.671875 163.296875 190.695312 163.1875 " fill-opacity="1" fill-rule="nonzero"/><path fill="#213555" d="M 190.757812 162.550781 L 190.757812 161.199219 L 189.804688 160.242188 C 190.441406 160.878906 190.757812 161.714844 190.757812 162.550781 " fill-opacity="1" fill-rule="nonzero"/><path fill="#213555" d="M 189.789062 164.863281 C 189.949219 164.710938 190.089844 164.539062 190.210938 164.355469 C 190.09375 164.527344 189.957031 164.703125 189.804688 164.855469 L 189.789062 164.863281 " fill-opacity="1" fill-rule="nonzero"/><path fill="#213555" d="M 190.507812 163.792969 C 190.457031 163.921875 190.386719 164.039062 190.320312 164.160156 C 190.386719 164.039062 190.457031 163.921875 190.507812 163.792969 " fill-opacity="1" fill-rule="nonzero"/><path fill="#213555" d="M 184.300781 163.1875 C 184.261719 162.988281 184.238281 162.785156 184.238281 162.578125 C 184.238281 162.78125 184.261719 162.984375 184.300781 163.1875 " fill-opacity="1" fill-rule="nonzero"/><path fill="#213555" d="M 184.484375 163.792969 C 184.445312 163.699219 184.421875 163.597656 184.394531 163.5 C 184.421875 163.597656 184.445312 163.699219 184.484375 163.792969 " fill-opacity="1" fill-rule="nonzero"/><path fill="#213555" d="M 190.757812 162.578125 C 190.753906 162.785156 190.734375 162.988281 190.695312 163.1875 C 190.734375 162.984375 190.753906 162.78125 190.757812 162.578125 " fill-opacity="1" fill-rule="nonzero"/><path fill="#213555" d="M 187.496094 165.8125 C 186.597656 165.8125 185.789062 165.449219 185.203125 164.863281 L 187.496094 167.164062 L 189.789062 164.863281 C 189.203125 165.449219 188.394531 165.8125 187.496094 165.8125 " fill-opacity="1" fill-rule="nonzero"/><path fill="#213555" d="M 190.320312 164.160156 C 190.277344 164.222656 190.253906 164.292969 190.210938 164.355469 C 190.253906 164.292969 190.277344 164.226562 190.320312 164.160156 " fill-opacity="1" fill-rule="nonzero"/><path fill="#213555" d="M 190.601562 163.5 C 190.570312 163.601562 190.550781 163.703125 190.507812 163.792969 C 190.550781 163.699219 190.570312 163.601562 190.601562 163.5 " fill-opacity="1" fill-rule="nonzero"/><path fill="#213555" d="M 184.78125 164.355469 C 184.738281 164.292969 184.714844 164.222656 184.679688 164.160156 C 184.714844 164.222656 184.738281 164.292969 184.78125 164.355469 " fill-opacity="1" fill-rule="nonzero"/><path fill="#213555" d="M 185.191406 160.242188 C 184.554688 160.878906 184.234375 161.714844 184.234375 162.550781 C 184.234375 162.554688 184.238281 162.566406 184.238281 162.578125 C 184.238281 162.785156 184.261719 162.988281 184.300781 163.1875 C 184.320312 163.296875 184.363281 163.390625 184.394531 163.5 C 184.421875 163.597656 184.445312 163.699219 184.484375 163.792969 C 184.535156 163.921875 184.605469 164.039062 184.679688 164.160156 C 184.714844 164.222656 184.738281 164.292969 184.78125 164.355469 C 184.898438 164.527344 185.035156 164.703125 185.191406 164.855469 L 185.203125 164.863281 C 185.789062 165.449219 186.597656 165.8125 187.496094 165.8125 C 188.394531 165.8125 189.203125 165.449219 189.789062 164.863281 L 189.804688 164.855469 C 189.957031 164.703125 190.09375 164.527344 190.210938 164.355469 C 190.253906 164.292969 190.277344 164.222656 190.320312 164.160156 C 190.386719 164.039062 190.457031 163.921875 190.507812 163.792969 C 190.550781 163.703125 190.570312 163.601562 190.601562 163.5 C 190.636719 163.398438 190.671875 163.296875 190.695312 163.1875 C 190.734375 162.988281 190.753906 162.785156 190.757812 162.578125 C 190.757812 162.566406 190.757812 162.554688 190.757812 162.550781 C 190.757812 161.714844 190.441406 160.878906 189.804688 160.242188 C 188.53125 158.96875 186.460938 158.96875 185.191406 160.242188 " fill-opacity="1" fill-rule="nonzero"/><path fill="#213555" d="M 272.773438 227.230469 C 276.488281 215.007812 276.484375 200.070312 272.746094 185.164062 C 265.683594 156.945312 247.246094 136.457031 228.910156 136.457031 C 226.957031 136.457031 225.015625 136.699219 223.140625 137.167969 C 218.828125 138.246094 214.851562 143.183594 211.332031 151.832031 C 211.175781 152.222656 211.09375 152.644531 211.09375 153.0625 L 211.09375 181.53125 L 214.355469 184.792969 L 214.355469 153.0625 C 217.253906 145.9375 220.632812 141.15625 223.933594 140.332031 C 241.726562 135.878906 262.164062 156.304688 269.585938 185.953125 C 277.007812 215.605469 268.597656 243.25 250.808594 247.707031 C 232.578125 252.265625 221.074219 246.105469 214.355469 234.792969 L 214.355469 194.015625 L 211.09375 190.753906 L 211.09375 234.792969 C 211.09375 235.382812 211.25 235.953125 211.546875 236.457031 C 217.777344 246.941406 227.429688 252.480469 239.457031 252.480469 C 243.238281 252.480469 247.328125 251.9375 251.597656 250.867188 C 261.363281 248.425781 268.878906 240.03125 272.773438 227.230469 " fill-opacity="1" fill-rule="nonzero"/><path fill="#213555" d="M 214.355469 184.792969 L 211.09375 181.53125 L 211.09375 190.753906 L 214.355469 194.015625 L 214.355469 184.792969 " fill-opacity="1" fill-rule="nonzero"/><path fill="#213555" d="M 217.617188 153.710938 C 220.519531 146.773438 223.246094 143.863281 224.726562 143.496094 C 226.082031 143.15625 227.488281 142.980469 228.910156 142.980469 C 244.050781 142.980469 260.175781 161.796875 266.421875 186.75 C 269.867188 200.523438 269.910156 214.222656 266.53125 225.328125 C 263.328125 235.851562 257.46875 242.675781 250.019531 244.539062 C 235.339844 248.214844 224.402344 244.648438 217.617188 233.875 L 217.617188 197.277344 L 217.117188 196.777344 C 217.117188 196.777344 217.109375 196.777344 217.109375 196.777344 C 217.109375 196.773438 217.109375 196.773438 217.109375 196.773438 L 214.355469 194.015625 L 214.355469 234.792969 C 221.074219 246.105469 232.578125 252.265625 250.808594 247.707031 C 268.597656 243.25 277.007812 215.605469 269.585938 185.953125 C 262.164062 156.304688 241.726562 135.878906 223.933594 140.332031 C 220.632812 141.15625 217.253906 145.9375 214.355469 153.0625 L 214.355469 184.792969 L 217.617188 188.054688 L 217.617188 153.710938 " fill-opacity="1" fill-rule="nonzero"/><path fill="#213555" d="M 217.109375 196.773438 C 215.835938 195.5 215.835938 193.433594 217.109375 192.167969 L 217.617188 191.660156 L 217.617188 188.054688 L 214.355469 184.792969 L 214.355469 194.015625 L 217.109375 196.773438 " fill-opacity="1" fill-rule="nonzero"/><path fill="#213555" d="M 237.863281 180.632812 L 236.511719 180.632812 C 234.714844 180.632812 233.25 179.175781 233.25 177.371094 L 233.25 176.019531 L 219.414062 189.859375 L 221.722656 192.167969 L 224.03125 194.46875 L 237.863281 180.632812 " fill-opacity="1" fill-rule="nonzero"/><path fill="#213555" d="M 221.722656 192.167969 L 219.414062 189.859375 L 217.617188 191.660156 L 217.617188 191.753906 C 218.878906 190.914062 220.605469 191.042969 221.722656 192.167969 " fill-opacity="1" fill-rule="nonzero"/><path fill="#213555" d="M 217.117188 196.777344 L 217.109375 196.777344 L 217.109375 196.773438 C 217.109375 196.773438 217.109375 196.773438 217.109375 196.777344 C 217.109375 196.777344 217.117188 196.777344 217.117188 196.777344 " fill-opacity="1" fill-rule="nonzero"/><path fill="#213555" d="M 217.109375 192.167969 C 217.269531 192.007812 217.4375 191.871094 217.617188 191.753906 L 217.617188 191.660156 L 217.109375 192.167969 C 215.835938 193.433594 215.835938 195.5 217.109375 196.773438 L 217.109375 196.777344 C 215.835938 195.503906 215.835938 193.441406 217.109375 192.167969 " fill-opacity="1" fill-rule="nonzero"/><path fill="#213555" d="M 233.25 211.566406 C 233.25 209.761719 234.714844 208.304688 236.511719 208.304688 L 237.863281 208.304688 L 224.03125 194.46875 L 221.722656 196.777344 C 221.085938 197.414062 220.25 197.730469 219.417969 197.730469 C 219.058594 197.730469 218.699219 197.660156 218.355469 197.542969 C 218.304688 197.523438 218.242188 197.515625 218.191406 197.492188 C 218.136719 197.472656 218.078125 197.429688 218.027344 197.40625 C 217.886719 197.339844 217.742188 197.277344 217.617188 197.1875 L 217.617188 197.277344 L 233.25 212.917969 L 233.25 211.566406 " fill-opacity="1" fill-rule="nonzero"/><path fill="#213555" d="M 218.191406 197.492188 C 218.136719 197.472656 218.078125 197.429688 218.027344 197.40625 C 218.078125 197.429688 218.136719 197.472656 218.191406 197.492188 " fill-opacity="1" fill-rule="nonzero"/><path fill="#213555" d="M 219.417969 197.730469 C 219.058594 197.730469 218.699219 197.660156 218.355469 197.542969 C 218.699219 197.660156 219.058594 197.730469 219.417969 197.730469 " fill-opacity="1" fill-rule="nonzero"/><path fill="#213555" d="M 217.117188 196.777344 L 217.617188 197.277344 L 217.617188 197.1875 C 217.4375 197.070312 217.269531 196.9375 217.117188 196.777344 " fill-opacity="1" fill-rule="nonzero"/><path fill="#213555" d="M 221.722656 196.777344 C 221.085938 197.414062 220.25 197.730469 219.417969 197.730469 C 220.25 197.730469 221.085938 197.414062 221.722656 196.777344 L 224.03125 194.46875 L 221.722656 192.167969 C 222.996094 193.441406 222.996094 195.503906 221.722656 196.777344 " fill-opacity="1" fill-rule="nonzero"/><path fill="#213555" d="M 217.617188 197.1875 C 217.742188 197.277344 217.886719 197.339844 218.027344 197.40625 C 217.886719 197.339844 217.742188 197.277344 217.617188 197.1875 " fill-opacity="1" fill-rule="nonzero"/><path fill="#213555" d="M 218.355469 197.542969 C 218.304688 197.523438 218.242188 197.515625 218.191406 197.492188 C 218.242188 197.515625 218.304688 197.523438 218.355469 197.542969 " fill-opacity="1" fill-rule="nonzero"/><path fill="#213555" d="M 218.027344 197.40625 C 218.078125 197.429688 218.136719 197.472656 218.191406 197.492188 C 218.242188 197.515625 218.304688 197.523438 218.355469 197.542969 C 218.699219 197.660156 219.058594 197.730469 219.417969 197.730469 C 220.25 197.730469 221.085938 197.414062 221.722656 196.777344 C 222.996094 195.503906 222.996094 193.441406 221.722656 192.167969 C 220.605469 191.042969 218.878906 190.914062 217.617188 191.753906 L 217.617188 197.1875 C 217.742188 197.277344 217.886719 197.339844 218.027344 197.40625 " fill-opacity="1" fill-rule="nonzero"/><path fill="#213555" d="M 217.617188 197.1875 C 217.4375 197.070312 217.269531 196.929688 217.109375 196.777344 L 217.117188 196.777344 C 217.269531 196.9375 217.4375 197.070312 217.617188 197.1875 " fill-opacity="1" fill-rule="nonzero"/><path fill="#213555" d="M 217.617188 191.753906 C 217.4375 191.871094 217.269531 192.007812 217.109375 192.167969 C 215.835938 193.441406 215.835938 195.503906 217.109375 196.777344 C 217.269531 196.929688 217.4375 197.070312 217.617188 197.1875 L 217.617188 191.753906 " fill-opacity="1" fill-rule="nonzero"/><path fill="#213555" d="M 239.230469 209.757812 C 239.269531 209.824219 239.300781 209.894531 239.335938 209.960938 C 239.40625 210.078125 239.472656 210.195312 239.53125 210.324219 C 239.558594 210.40625 239.582031 210.492188 239.605469 210.578125 C 239.640625 210.695312 239.6875 210.8125 239.714844 210.9375 C 239.738281 211.0625 239.742188 211.191406 239.75 211.324219 C 239.757812 211.40625 239.773438 211.480469 239.773438 211.566406 L 239.78125 214.828125 L 247.195312 214.828125 C 248.992188 214.828125 250.457031 213.367188 250.457031 211.566406 C 250.457031 209.761719 248.992188 208.304688 247.195312 208.304688 L 237.863281 208.304688 L 238.816406 209.257812 C 238.96875 209.410156 239.105469 209.582031 239.230469 209.757812 " fill-opacity="1" fill-rule="nonzero"/><path fill="#213555" d="M 239.230469 209.757812 C 239.269531 209.824219 239.300781 209.894531 239.335938 209.960938 C 239.300781 209.894531 239.269531 209.824219 239.230469 209.757812 " fill-opacity="1" fill-rule="nonzero"/><path fill="#213555" d="M 239.714844 210.9375 C 239.738281 211.058594 239.742188 211.191406 239.75 211.324219 C 239.742188 211.191406 239.738281 211.0625 239.714844 210.9375 " fill-opacity="1" fill-rule="nonzero"/><path fill="#213555" d="M 239.53125 210.324219 C 239.558594 210.40625 239.582031 210.492188 239.605469 210.578125 C 239.582031 210.492188 239.558594 210.40625 239.53125 210.324219 " fill-opacity="1" fill-rule="nonzero"/><path fill="#213555" d="M 233.25 211.566406 C 233.257812 209.761719 234.714844 208.304688 236.511719 208.304688 C 237.414062 208.304688 238.230469 208.667969 238.816406 209.257812 L 237.863281 208.304688 L 236.511719 208.304688 C 234.714844 208.304688 233.25 209.761719 233.25 211.566406 " fill-opacity="1" fill-rule="nonzero"/><path fill="#213555" d="M 236.511719 214.828125 C 236.296875 214.828125 236.085938 214.804688 235.875 214.761719 C 235.785156 214.746094 235.707031 214.710938 235.621094 214.6875 C 235.5 214.652344 235.382812 214.625 235.265625 214.578125 C 235.167969 214.539062 235.082031 214.484375 234.988281 214.433594 C 234.890625 214.382812 234.796875 214.339844 234.703125 214.277344 C 234.546875 214.171875 234.402344 214.050781 234.269531 213.921875 C 234.25 213.902344 234.222656 213.890625 234.210938 213.871094 L 233.25 212.917969 L 233.257812 222.25 C 233.257812 224.046875 234.714844 225.511719 236.519531 225.511719 C 238.316406 225.511719 239.78125 224.046875 239.78125 222.246094 L 239.78125 214.828125 L 236.511719 214.828125 " fill-opacity="1" fill-rule="nonzero"/><path fill="#213555" d="M 235.621094 214.6875 C 235.5 214.652344 235.375 214.625 235.265625 214.578125 C 235.382812 214.625 235.5 214.652344 235.621094 214.6875 " fill-opacity="1" fill-rule="nonzero"/><path fill="#213555" d="M 236.511719 214.828125 C 236.292969 214.828125 236.078125 214.804688 235.875 214.761719 C 236.085938 214.804688 236.296875 214.828125 236.511719 214.828125 " fill-opacity="1" fill-rule="nonzero"/><path fill="#213555" d="M 234.988281 214.433594 C 234.890625 214.382812 234.796875 214.335938 234.703125 214.277344 C 234.796875 214.339844 234.890625 214.382812 234.988281 214.433594 " fill-opacity="1" fill-rule="nonzero"/><path fill="#213555" d="M 234.269531 213.921875 C 233.648438 213.332031 233.25 212.496094 233.25 211.566406 L 233.25 212.917969 L 234.210938 213.871094 C 234.222656 213.890625 234.25 213.902344 234.269531 213.921875 " fill-opacity="1" fill-rule="nonzero"/><path fill="#213555" d="M 239.605469 210.578125 C 239.640625 210.695312 239.6875 210.8125 239.714844 210.9375 C 239.6875 210.8125 239.640625 210.695312 239.605469 210.578125 " fill-opacity="1" fill-rule="nonzero"/><path fill="#213555" d="M 239.335938 209.960938 C 239.40625 210.078125 239.480469 210.195312 239.53125 210.324219 C 239.472656 210.195312 239.40625 210.078125 239.335938 209.960938 " fill-opacity="1" fill-rule="nonzero"/><path fill="#213555" d="M 235.875 214.761719 C 235.789062 214.746094 235.707031 214.710938 235.621094 214.6875 C 235.707031 214.710938 235.785156 214.746094 235.875 214.761719 " fill-opacity="1" fill-rule="nonzero"/><path fill="#213555" d="M 239.75 211.324219 C 239.820312 212.234375 239.519531 213.171875 238.820312 213.871094 C 238.183594 214.507812 237.347656 214.828125 236.511719 214.828125 L 239.78125 214.828125 L 239.773438 211.566406 C 239.773438 211.480469 239.757812 211.40625 239.75 211.324219 " fill-opacity="1" fill-rule="nonzero"/><path fill="#213555" d="M 235.265625 214.578125 C 235.171875 214.539062 235.082031 214.484375 234.988281 214.433594 C 235.082031 214.484375 235.167969 214.539062 235.265625 214.578125 " fill-opacity="1" fill-rule="nonzero"/><path fill="#213555" d="M 239.230469 209.757812 C 239.105469 209.582031 238.96875 209.410156 238.816406 209.257812 L 238.820312 209.257812 C 238.972656 209.417969 239.113281 209.585938 239.230469 209.757812 " fill-opacity="1" fill-rule="nonzero"/><path fill="#213555" d="M 234.703125 214.277344 C 234.550781 214.171875 234.40625 214.054688 234.269531 213.921875 C 234.402344 214.050781 234.546875 214.171875 234.703125 214.277344 " fill-opacity="1" fill-rule="nonzero"/><path fill="#213555" d="M 234.269531 213.921875 C 234.40625 214.054688 234.550781 214.171875 234.703125 214.277344 C 234.796875 214.335938 234.890625 214.382812 234.988281 214.433594 C 235.082031 214.484375 235.171875 214.539062 235.265625 214.578125 C 235.375 214.625 235.5 214.652344 235.621094 214.6875 C 235.707031 214.710938 235.789062 214.746094 235.875 214.761719 C 236.078125 214.804688 236.292969 214.828125 236.511719 214.828125 C 237.347656 214.828125 238.183594 214.507812 238.820312 213.871094 C 239.519531 213.171875 239.820312 212.234375 239.75 211.324219 C 239.742188 211.191406 239.738281 211.058594 239.714844 210.9375 C 239.6875 210.8125 239.640625 210.695312 239.605469 210.578125 C 239.582031 210.492188 239.558594 210.40625 239.53125 210.324219 C 239.480469 210.195312 239.40625 210.078125 239.335938 209.960938 C 239.300781 209.894531 239.269531 209.824219 239.230469 209.757812 C 239.113281 209.585938 238.972656 209.417969 238.820312 209.257812 L 238.816406 209.257812 C 238.230469 208.667969 237.414062 208.304688 236.511719 208.304688 C 234.714844 208.304688 233.257812 209.761719 233.25 211.566406 C 233.25 212.496094 233.648438 213.332031 234.269531 213.921875 " fill-opacity="1" fill-rule="nonzero"/><path fill="#213555" d="M 234.332031 174.964844 C 234.449219 174.859375 234.566406 174.75 234.703125 174.664062 C 234.796875 174.597656 234.898438 174.558594 234.992188 174.503906 C 235.085938 174.457031 235.171875 174.398438 235.265625 174.359375 C 235.382812 174.3125 235.5 174.289062 235.617188 174.253906 C 235.703125 174.226562 235.785156 174.195312 235.875 174.175781 C 236.085938 174.136719 236.296875 174.109375 236.511719 174.109375 L 239.773438 174.109375 L 239.773438 166.695312 C 239.773438 164.890625 238.316406 163.433594 236.511719 163.433594 C 234.714844 163.433594 233.25 164.890625 233.25 166.695312 L 233.25 176.019531 L 234.203125 175.066406 C 234.246094 175.027344 234.289062 175 234.332031 174.964844 " fill-opacity="1" fill-rule="nonzero"/><path fill="#213555" d="M 236.511719 180.632812 C 234.714844 180.632812 233.25 179.175781 233.25 177.371094 C 233.25 176.417969 233.675781 175.5625 234.332031 174.964844 C 234.289062 175 234.246094 175.027344 234.203125 175.066406 L 233.25 176.019531 L 233.25 177.371094 C 233.25 179.175781 234.714844 180.632812 236.511719 180.632812 " fill-opacity="1" fill-rule="nonzero"/><path fill="#213555" d="M 235.265625 174.359375 C 235.375 174.3125 235.5 174.289062 235.617188 174.253906 C 235.5 174.289062 235.382812 174.3125 235.265625 174.359375 " fill-opacity="1" fill-rule="nonzero"/><path fill="#213555" d="M 234.703125 174.664062 C 234.796875 174.597656 234.898438 174.558594 234.992188 174.503906 C 234.898438 174.558594 234.796875 174.597656 234.703125 174.664062 " fill-opacity="1" fill-rule="nonzero"/><path fill="#213555" d="M 235.875 174.175781 C 236.078125 174.136719 236.292969 174.109375 236.511719 174.109375 C 236.296875 174.109375 236.085938 174.136719 235.875 174.175781 " fill-opacity="1" fill-rule="nonzero"/><path fill="#213555" d="M 239.707031 178.011719 C 239.691406 178.105469 239.65625 178.191406 239.632812 178.285156 C 239.597656 178.394531 239.570312 178.511719 239.523438 178.621094 C 239.480469 178.726562 239.421875 178.824219 239.367188 178.925781 C 239.320312 179.011719 239.28125 179.097656 239.222656 179.179688 C 239.105469 179.359375 238.972656 179.523438 238.828125 179.675781 C 238.820312 179.675781 238.820312 179.679688 238.820312 179.679688 L 237.863281 180.632812 L 247.195312 180.632812 C 248.992188 180.632812 250.457031 179.175781 250.457031 177.371094 C 250.457031 175.574219 248.992188 174.109375 247.195312 174.109375 L 239.773438 174.109375 L 239.773438 177.371094 C 239.773438 177.585938 239.753906 177.800781 239.707031 178.011719 " fill-opacity="1" fill-rule="nonzero"/><path fill="#213555" d="M 239.632812 178.285156 C 239.597656 178.394531 239.570312 178.511719 239.523438 178.621094 C 239.570312 178.511719 239.597656 178.394531 239.632812 178.285156 " fill-opacity="1" fill-rule="nonzero"/><path fill="#213555" d="M 239.707031 178.011719 C 239.753906 177.800781 239.773438 177.585938 239.773438 177.371094 C 239.773438 177.59375 239.753906 177.804688 239.707031 178.011719 " fill-opacity="1" fill-rule="nonzero"/><path fill="#213555" d="M 239.367188 178.925781 C 239.320312 179.011719 239.28125 179.097656 239.222656 179.179688 C 239.28125 179.097656 239.320312 179.011719 239.367188 178.925781 " fill-opacity="1" fill-rule="nonzero"/><path fill="#213555" d="M 238.828125 179.675781 C 238.234375 180.265625 237.417969 180.632812 236.511719 180.632812 L 237.863281 180.632812 L 238.820312 179.679688 C 238.820312 179.679688 238.820312 179.675781 238.828125 179.675781 " fill-opacity="1" fill-rule="nonzero"/><path fill="#213555" d="M 234.992188 174.503906 C 235.085938 174.457031 235.171875 174.398438 235.265625 174.359375 C 235.171875 174.398438 235.085938 174.457031 234.992188 174.503906 " fill-opacity="1" fill-rule="nonzero"/><path fill="#213555" d="M 236.511719 174.109375 C 237.347656 174.109375 238.183594 174.429688 238.820312 175.066406 C 239.457031 175.703125 239.773438 176.535156 239.773438 177.371094 L 239.773438 174.109375 L 236.511719 174.109375 " fill-opacity="1" fill-rule="nonzero"/><path fill="#213555" d="M 234.332031 174.964844 C 234.449219 174.859375 234.570312 174.75 234.703125 174.664062 C 234.566406 174.75 234.449219 174.859375 234.332031 174.964844 " fill-opacity="1" fill-rule="nonzero"/><path fill="#213555" d="M 239.523438 178.621094 C 239.484375 178.726562 239.421875 178.824219 239.367188 178.925781 C 239.421875 178.824219 239.480469 178.726562 239.523438 178.621094 " fill-opacity="1" fill-rule="nonzero"/><path fill="#213555" d="M 239.222656 179.179688 C 239.113281 179.355469 238.980469 179.523438 238.828125 179.675781 C 238.972656 179.523438 239.105469 179.359375 239.222656 179.179688 " fill-opacity="1" fill-rule="nonzero"/><path fill="#213555" d="M 239.707031 178.011719 C 239.691406 178.105469 239.65625 178.191406 239.632812 178.285156 C 239.65625 178.191406 239.691406 178.105469 239.707031 178.011719 " fill-opacity="1" fill-rule="nonzero"/><path fill="#213555" d="M 235.617188 174.253906 C 235.703125 174.226562 235.789062 174.195312 235.875 174.175781 C 235.785156 174.195312 235.703125 174.226562 235.617188 174.253906 " fill-opacity="1" fill-rule="nonzero"/><path fill="#213555" d="M 238.828125 179.675781 C 238.980469 179.523438 239.113281 179.355469 239.222656 179.179688 C 239.28125 179.097656 239.320312 179.011719 239.367188 178.925781 C 239.421875 178.824219 239.484375 178.726562 239.523438 178.621094 C 239.570312 178.511719 239.597656 178.394531 239.632812 178.285156 C 239.65625 178.191406 239.691406 178.105469 239.707031 178.011719 C 239.753906 177.804688 239.773438 177.59375 239.773438 177.371094 C 239.773438 176.535156 239.457031 175.703125 238.820312 175.066406 C 238.183594 174.429688 237.347656 174.109375 236.511719 174.109375 C 236.292969 174.109375 236.078125 174.136719 235.875 174.175781 C 235.789062 174.195312 235.703125 174.226562 235.617188 174.253906 C 235.5 174.289062 235.375 174.3125 235.265625 174.359375 C 235.171875 174.398438 235.085938 174.457031 234.992188 174.503906 C 234.898438 174.558594 234.796875 174.597656 234.703125 174.664062 C 234.570312 174.75 234.449219 174.859375 234.332031 174.964844 C 233.675781 175.5625 233.25 176.417969 233.25 177.371094 C 233.25 179.175781 234.714844 180.632812 236.511719 180.632812 C 237.417969 180.632812 238.234375 180.265625 238.828125 179.675781 " fill-opacity="1" fill-rule="nonzero"/><path fill="#213555" d="M 187.496094 114.148438 C 189.300781 114.148438 190.757812 115.605469 190.757812 117.40625 L 190.757812 120.441406 L 205.773438 120.441406 C 207.570312 120.441406 209.035156 118.976562 209.035156 117.179688 C 209.035156 115.375 207.570312 113.917969 205.773438 113.917969 L 169.226562 113.917969 C 167.421875 113.917969 165.964844 115.375 165.964844 117.179688 C 165.964844 118.976562 167.421875 120.441406 169.226562 120.441406 L 184.234375 120.441406 L 184.234375 117.40625 C 184.234375 115.605469 185.699219 114.148438 187.496094 114.148438 " fill-opacity="1" fill-rule="nonzero"/><path fill="#213555" d="M 190.757812 117.40625 C 190.757812 115.605469 189.300781 114.148438 187.496094 114.148438 C 185.699219 114.148438 184.234375 115.605469 184.234375 117.40625 L 184.234375 120.441406 L 190.757812 120.441406 L 190.757812 117.40625 " fill-opacity="1" fill-rule="nonzero"/><path fill="#213555" d="M 177.425781 125.820312 C 175.621094 125.820312 174.164062 127.285156 174.164062 129.082031 C 174.164062 130.886719 175.621094 132.34375 177.425781 132.34375 L 184.234375 132.34375 L 184.234375 125.820312 L 177.425781 125.820312 " fill-opacity="1" fill-rule="nonzero"/><path fill="#213555" d="M 197.566406 132.34375 C 199.371094 132.34375 200.828125 130.886719 200.828125 129.082031 C 200.828125 127.285156 199.371094 125.820312 197.566406 125.820312 L 190.757812 125.820312 L 190.757812 132.34375 L 197.566406 132.34375 " fill-opacity="1" fill-rule="nonzero"/><path fill="#213555" d="M 190.757812 125.820312 L 184.234375 125.820312 L 184.234375 132.34375 L 190.757812 132.34375 L 190.757812 125.820312 " fill-opacity="1" fill-rule="nonzero"/></svg>