<?xml version="1.0" standalone="no"?>
<!DOCTYPE svg PUBLIC "-//W3C//DTD SVG 20010904//EN"
 "http://www.w3.org/TR/2001/REC-SVG-20010904/DTD/svg10.dtd">
<svg version="1.0" xmlns="http://www.w3.org/2000/svg"
 width="1563.000000pt" height="1563.000000pt" viewBox="0 0 1563.000000 1563.000000"
 preserveAspectRatio="xMidYMid meet">

<g transform="translate(0.000000,1563.000000) scale(0.100000,-0.100000)"
fill="#000000" stroke="none">
<path d="M6040 11504 c-223 -48 -415 -231 -470 -451 -20 -77 -20 -107 -18
-1493 l3 -1415 22 -65 c64 -186 198 -325 383 -396 l75 -29 1745 -3 c1943 -3
1817 -7 1962 65 107 54 215 164 268 274 73 154 70 68 70 1587 0 1495 2 1443
-59 1577 -82 177 -247 310 -437 350 -96 20 -931 22 -958 2 -10 -7 -22 -35 -27
-61 -10 -57 -39 -100 -82 -124 -30 -16 -85 -17 -709 -17 -671 0 -677 0 -705
21 -40 30 -69 77 -77 123 -12 75 14 71 -479 70 -338 0 -457 -4 -507 -15z m909
-159 c40 -80 105 -129 193 -145 37 -7 285 -10 710 -8 l653 3 48 24 c58 29 123
100 139 152 l11 39 406 0 c453 0 488 -4 596 -65 126 -70 225 -205 254 -343 8
-37 11 -468 11 -1425 0 -1497 3 -1426 -56 -1543 -57 -113 -175 -213 -303 -256
l-66 -23 -1675 -3 c-1098 -2 -1704 1 -1760 8 -199 24 -371 167 -430 358 -20
63 -20 96 -20 1467 0 1377 0 1404 20 1468 38 123 131 232 251 297 107 57 126
59 575 59 l411 1 32 -65z"/>
<path d="M6420 11072 c-162 -43 -305 -182 -343 -334 -28 -112 -29 -147 -2
-174 23 -23 43 -24 71 -2 7 5 15 37 18 72 8 68 39 145 82 201 58 77 190 145
280 145 36 0 74 28 74 55 0 8 -9 24 -20 35 -25 25 -71 25 -160 2z"/>
<path d="M9048 11073 c-43 -47 -10 -87 80 -96 115 -13 243 -104 295 -210 21
-43 46 -146 47 -189 0 -4 11 -15 25 -24 23 -15 27 -15 50 0 21 14 25 24 25 64
0 113 -52 232 -140 322 -85 86 -184 134 -304 146 -52 5 -63 4 -78 -13z"/>
<path d="M7482 10813 c-25 -10 -34 -53 -17 -79 15 -23 19 -24 155 -24 l140 0
0 -45 0 -45 -65 0 c-52 0 -69 -4 -85 -20 -49 -49 -12 -90 83 -90 l67 0 0 -243
0 -242 -170 -170 -170 -170 0 243 0 242 -40 81 c-80 158 -160 204 -317 182
-207 -30 -410 -206 -548 -475 -208 -404 -231 -921 -54 -1214 46 -76 131 -158
193 -189 130 -63 370 -74 496 -22 84 35 169 102 225 178 l45 61 0 382 0 381
195 195 195 195 200 -200 200 -199 0 -377 0 -376 31 -46 c65 -98 172 -176 288
-211 119 -35 343 -12 454 46 210 112 331 443 298 810 -50 542 -366 1011 -715
1060 -114 16 -177 0 -237 -62 -25 -26 -62 -80 -83 -120 l-36 -73 0 -246 0
-246 -170 170 -170 170 0 242 0 243 70 0 c63 0 71 2 85 24 14 20 14 29 4 48
-18 34 -28 38 -96 38 l-63 0 0 45 0 45 131 0 c72 0 139 5 150 10 27 15 25 64
-3 84 -19 14 -68 16 -338 15 -173 0 -321 -3 -328 -6z m-252 -521 c15 -18 39
-56 54 -85 l26 -52 0 -320 0 -320 -130 130 -130 130 0 77 c0 42 -4 88 -9 101
-13 33 -46 43 -76 23 -23 -15 -25 -23 -25 -91 l0 -75 -68 0 c-75 0 -112 -17
-112 -52 0 -46 26 -58 124 -58 l91 0 115 -115 115 -115 -120 -120 -120 -120
-92 0 c-81 0 -94 -2 -103 -19 -30 -56 0 -81 96 -81 l74 0 0 -72 c0 -79 15
-108 56 -108 40 0 56 38 53 130 l-2 82 131 131 132 132 0 -312 0 -312 -56 -60
c-105 -114 -247 -157 -419 -127 -108 18 -148 38 -215 106 -62 63 -111 154
-143 269 -29 105 -31 403 -3 531 46 213 126 402 233 545 133 179 279 269 427
262 64 -3 71 -5 96 -35z m1442 -6 c215 -106 403 -404 480 -759 18 -83 22 -133
22 -272 -1 -151 -4 -181 -27 -268 -57 -213 -156 -328 -317 -368 -72 -18 -213
-15 -283 5 -65 19 -162 89 -200 144 l-27 38 0 305 0 306 130 -132 130 -131 0
-86 c0 -93 11 -118 52 -118 43 0 58 27 58 106 l0 73 77 3 c72 3 78 5 92 30 14
24 14 28 -3 47 -16 18 -32 21 -110 22 l-91 2 -115 119 -114 118 114 115 115
115 92 0 c84 0 93 2 107 22 21 30 20 44 -4 68 -16 16 -33 20 -90 20 l-70 0 0
70 c0 57 -4 74 -20 90 -11 11 -27 20 -35 20 -8 0 -24 -9 -35 -20 -17 -17 -20
-33 -20 -108 l0 -87 -130 -130 -130 -130 0 323 c0 309 1 325 21 365 30 59 67
107 93 118 11 5 53 7 92 6 58 -3 85 -11 146 -41z"/>
<path d="M6070 8605 c-27 -32 -4 -178 40 -265 32 -62 99 -137 157 -176 142
-94 334 -114 333 -33 0 30 -21 42 -95 55 -97 17 -151 43 -220 106 -66 60 -102
130 -120 233 -7 43 -19 82 -27 86 -21 14 -54 10 -68 -6z"/>
<path d="M9482 8608 c-5 -7 -15 -46 -21 -87 -28 -180 -152 -303 -339 -335 -82
-14 -92 -20 -92 -55 0 -39 17 -51 75 -51 152 0 329 109 403 248 58 110 81 242
46 276 -19 19 -58 21 -72 4z"/>
<path d="M7741 6714 c-275 -74 -421 -358 -331 -646 84 -270 401 -395 683 -270
60 27 78 63 49 101 -25 33 -61 37 -110 12 -54 -27 -145 -40 -215 -31 -124 18
-224 96 -268 209 -28 72 -31 222 -5 290 28 76 87 143 157 181 55 29 76 35 149
38 70 3 96 0 145 -18 120 -45 155 -36 155 37 0 29 -5 35 -50 58 -107 54 -247
69 -359 39z"/>
<path d="M3850 6700 c-19 -19 -20 -33 -20 -460 0 -427 1 -441 20 -460 19 -19
33 -20 273 -20 285 0 297 3 297 65 0 61 -16 65 -252 65 l-208 0 0 398 c0 374
-1 400 -18 415 -25 23 -68 21 -92 -3z"/>
<path d="M5681 6489 c-54 -11 -121 -49 -155 -90 l-26 -31 0 30 c0 39 -35 82
-66 82 -13 0 -33 -9 -44 -20 -19 -19 -20 -33 -20 -340 0 -307 1 -321 20 -340
28 -28 64 -25 89 6 20 25 21 39 21 242 0 209 1 216 24 256 35 60 95 91 173 90
75 -1 107 -19 134 -77 16 -37 19 -68 19 -263 0 -209 1 -223 21 -248 25 -31 61
-34 89 -6 19 19 20 33 20 258 0 255 -7 305 -52 372 -43 63 -152 98 -247 79z"/>
<path d="M6391 6484 c-134 -36 -229 -149 -250 -298 -33 -235 117 -436 328
-436 80 0 142 24 203 78 l51 47 -6 -68 c-11 -117 -62 -177 -167 -197 -60 -11
-97 -7 -187 22 -79 25 -113 21 -132 -14 -14 -24 -14 -28 4 -48 68 -75 259
-103 400 -59 55 17 78 31 120 72 85 86 87 98 93 482 2 182 0 346 -5 365 -6 22
-19 41 -36 50 -24 13 -30 13 -54 0 -23 -13 -29 -24 -31 -59 l-3 -44 -32 31
c-43 41 -101 70 -166 82 -65 12 -63 12 -130 -6z m166 -119 c57 -17 110 -64
139 -121 28 -57 27 -194 -3 -249 -43 -82 -114 -125 -203 -125 -89 0 -159 43
-203 125 -31 57 -31 193 0 250 30 57 83 104 134 120 58 18 76 18 136 0z"/>
<path d="M8509 6487 c-138 -39 -226 -146 -248 -301 -20 -141 22 -270 116 -356
69 -63 131 -84 227 -78 79 5 118 22 177 75 l39 35 0 -31 c0 -65 71 -94 109
-45 20 26 21 38 21 339 0 301 -1 313 -21 339 -38 49 -109 20 -109 -45 l0 -31
-37 32 c-73 65 -185 92 -274 67z m146 -118 c60 -15 117 -67 145 -131 32 -75
26 -194 -14 -262 -48 -83 -139 -121 -241 -102 -44 9 -109 65 -137 120 -59 116
-15 301 84 352 67 35 99 39 163 23z"/>
<path d="M9460 6491 c-53 -11 -112 -45 -153 -87 l-37 -38 0 41 c0 32 -5 46
-22 57 -33 23 -64 19 -87 -10 -20 -26 -21 -38 -21 -334 0 -296 1 -308 21 -334
25 -31 61 -34 89 -6 19 19 20 33 20 233 0 185 3 217 19 253 51 112 223 149
295 64 40 -48 46 -90 46 -317 0 -200 1 -214 20 -233 28 -28 64 -25 89 6 20 25
21 39 21 228 0 270 -14 349 -74 414 -46 51 -147 79 -226 63z"/>
<path d="M10197 6490 c-109 -19 -200 -91 -251 -199 -29 -61 -31 -74 -31 -171
0 -97 2 -110 32 -172 36 -76 92 -136 161 -169 41 -21 62 -24 157 -24 94 0 117
3 160 23 65 30 95 59 95 92 0 27 -27 60 -48 60 -7 0 -38 -13 -69 -30 -94 -51
-216 -39 -286 28 -54 51 -72 98 -72 192 0 92 13 129 64 183 73 80 221 98 299
37 46 -37 112 -15 112 37 0 76 -176 138 -323 113z"/>
<path d="M10893 6490 c-173 -36 -281 -194 -271 -400 7 -144 72 -246 196 -307
51 -25 67 -28 162 -28 95 0 111 3 162 28 101 50 139 116 89 155 -21 17 -51 9
-107 -31 -40 -28 -55 -32 -124 -36 -66 -2 -87 1 -124 19 -67 32 -110 89 -130
173 l-6 27 253 0 c306 0 302 -1 295 94 -16 193 -210 344 -395 306z m157 -135
c55 -29 100 -89 100 -136 0 -18 -9 -19 -201 -19 l-201 0 7 28 c16 69 74 124
150 143 37 10 111 1 145 -16z"/>
<path d="M11753 6491 c-51 -13 -122 -60 -146 -96 -12 -19 -25 -35 -29 -35 -5
0 -8 20 -8 43 0 69 -51 99 -99 60 -21 -18 -21 -22 -19 -348 l3 -329 28 -16
c24 -13 30 -13 55 0 l27 16 6 214 c6 236 14 273 75 334 41 40 70 48 145 41 76
-8 99 5 99 55 0 49 -67 78 -137 61z"/>
<path d="M4590 6460 c-19 -19 -20 -33 -20 -235 0 -241 8 -295 53 -363 47 -70
118 -105 224 -110 112 -6 182 16 243 78 72 72 80 109 80 381 0 216 -1 230 -20
249 -28 28 -64 25 -89 -6 -20 -25 -21 -39 -21 -248 0 -191 -2 -226 -18 -255
-27 -55 -63 -75 -140 -79 -87 -4 -128 16 -159 78 -22 42 -23 56 -23 267 0 210
-1 224 -20 243 -11 11 -31 20 -45 20 -14 0 -34 -9 -45 -20z"/>
<path d="M9070 5200 c-108 -13 -199 -71 -243 -155 -15 -30 -21 -58 -21 -110 0
-146 82 -224 289 -274 173 -43 235 -89 235 -177 0 -84 -78 -137 -200 -138 -87
-1 -149 19 -214 69 -60 45 -78 49 -109 24 -56 -43 -16 -113 98 -171 150 -78
364 -61 473 37 60 54 84 108 84 191 -1 147 -79 223 -284 274 -117 29 -181 57
-214 91 -24 25 -29 39 -29 80 0 45 4 54 37 84 20 18 53 38 75 44 82 23 191 6
262 -41 62 -41 72 -46 92 -41 11 3 27 16 36 29 60 92 -172 208 -367 184z"/>
<path d="M2217 5172 c-15 -17 -17 -57 -17 -460 0 -429 1 -443 20 -462 19 -19
33 -20 223 -20 132 0 221 5 258 14 141 33 235 133 285 301 22 74 24 238 5 315
-34 139 -115 246 -224 296 -62 29 -62 29 -297 32 -221 3 -237 2 -253 -16z
m483 -128 c122 -56 189 -223 162 -406 -20 -140 -89 -242 -179 -267 -21 -6
-109 -11 -195 -11 l-158 0 0 356 0 356 163 -4 c137 -3 169 -7 207 -24z"/>
<path d="M6487 5172 c-21 -23 -22 -86 -1 -106 23 -23 89 -21 114 4 47 47 11
120 -58 120 -25 0 -45 -7 -55 -18z"/>
<path d="M4040 5110 c-10 -6 -17 -33 -20 -87 l-5 -78 -55 -5 c-70 -7 -80 -14
-80 -55 0 -44 29 -65 92 -65 l48 0 0 -242 c0 -223 2 -246 20 -275 27 -45 60
-63 123 -70 67 -7 124 16 134 55 10 41 -8 57 -65 57 -86 0 -86 0 -90 255 l-3
220 60 0 c33 0 71 4 85 10 33 12 43 52 22 85 -14 21 -24 24 -88 27 l-73 3 -5
78 c-5 83 -14 97 -60 97 -14 0 -32 -5 -40 -10z"/>
<path d="M6047 5102 c-13 -14 -17 -38 -17 -90 l0 -72 -54 0 c-62 0 -86 -16
-86 -59 0 -39 22 -54 86 -59 l54 -4 0 -237 c0 -205 2 -241 18 -270 25 -51 60
-72 128 -77 76 -7 127 17 132 59 5 43 -15 60 -63 53 -29 -3 -48 0 -63 10 -21
15 -22 21 -22 240 l0 224 58 0 c72 0 106 17 110 54 6 48 -21 66 -98 66 l-68 0
-4 76 c-3 60 -7 79 -23 90 -26 20 -69 17 -88 -4z"/>
<path d="M11156 5098 c-11 -15 -16 -45 -16 -90 l0 -68 -53 0 c-58 0 -87 -19
-87 -56 0 -39 24 -57 84 -62 l56 -4 0 -222 c0 -243 7 -286 51 -327 79 -74 262
-31 230 55 -10 24 -14 26 -67 23 -84 -3 -84 -4 -84 255 l0 218 63 0 c75 0 107
18 107 60 0 47 -22 60 -101 60 l-69 0 0 68 c0 84 -16 112 -65 112 -24 0 -39
-7 -49 -22z"/>
<path d="M3381 4955 c-71 -20 -110 -45 -165 -106 -65 -72 -89 -142 -90 -259 0
-75 5 -107 22 -151 32 -80 90 -142 170 -181 62 -31 74 -33 167 -33 93 0 105 2
167 33 37 18 77 45 88 59 27 35 22 73 -11 92 -24 13 -30 12 -89 -25 -53 -33
-73 -39 -130 -42 -38 -2 -85 1 -105 8 -73 24 -154 122 -155 187 l0 23 256 2
257 3 19 26 c17 23 18 32 9 81 -37 203 -226 333 -410 283z m178 -135 c47 -23
88 -74 97 -118 l7 -32 -206 0 -206 0 15 43 c39 116 178 166 293 107z"/>
<path d="M4703 4960 c-201 -42 -321 -277 -254 -498 27 -89 95 -168 179 -209
51 -25 68 -27 162 -28 93 0 111 3 160 26 63 30 120 83 120 110 0 22 -34 59
-54 59 -7 0 -31 -12 -52 -26 -61 -42 -98 -54 -168 -54 -92 0 -159 37 -203 110
-18 30 -33 67 -33 82 l0 28 253 0 c233 0 255 1 270 18 24 26 22 99 -5 169 -29
78 -122 173 -193 196 -65 22 -130 28 -182 17z m177 -148 c45 -28 73 -66 85
-114 l7 -28 -207 0 -206 0 6 23 c43 139 191 196 315 119z"/>
<path d="M5490 4957 c-108 -24 -190 -92 -237 -194 -93 -203 -4 -452 186 -524
82 -31 226 -24 306 15 68 34 92 66 79 104 -5 15 -21 31 -36 36 -22 8 -34 5
-69 -20 -37 -25 -53 -29 -123 -32 -77 -3 -84 -2 -136 30 -109 66 -147 212 -88
340 58 126 212 173 335 102 70 -40 113 -29 113 31 0 84 -181 145 -330 112z"/>
<path d="M7049 4960 c-105 -19 -206 -95 -254 -195 -49 -99 -51 -239 -5 -342
27 -61 104 -138 169 -170 50 -25 67 -28 156 -28 89 0 106 3 157 28 159 78 240
259 194 437 -49 189 -226 304 -417 270z m169 -139 c78 -40 132 -135 132 -231
0 -189 -184 -309 -341 -223 -155 84 -167 334 -23 436 72 51 156 57 232 18z"/>
<path d="M7950 4961 c-53 -11 -112 -45 -153 -87 l-37 -38 0 41 c0 32 -5 46
-22 57 -33 23 -64 19 -87 -10 -20 -26 -21 -38 -21 -334 0 -296 1 -308 21 -334
25 -31 61 -34 89 -6 19 19 20 33 20 233 0 185 3 217 19 253 51 112 223 149
295 64 40 -48 46 -90 46 -317 0 -200 1 -214 20 -233 28 -28 64 -25 89 6 20 25
21 39 21 228 0 270 -14 349 -74 414 -46 51 -147 79 -226 63z"/>
<path d="M10593 4960 c-155 -32 -233 -162 -172 -287 28 -58 74 -87 194 -125
131 -40 169 -60 184 -96 58 -141 -196 -179 -318 -48 -26 28 -78 35 -99 14 -39
-39 18 -121 117 -167 49 -23 69 -26 156 -26 88 0 107 3 149 25 27 14 63 42 79
63 26 31 32 49 35 101 8 123 -41 174 -226 232 -161 50 -205 99 -151 167 48 61
153 60 247 -4 68 -45 75 -46 102 -19 28 28 25 44 -16 90 -57 63 -185 99 -281
80z"/>
<path d="M11834 4960 c-146 -30 -254 -155 -274 -317 -22 -173 48 -316 187
-385 89 -44 208 -51 296 -18 118 45 174 113 131 161 -22 24 -45 24 -75 0 -81
-63 -200 -81 -285 -42 -66 30 -134 126 -134 190 0 8 72 11 255 11 247 0 256 1
276 21 19 19 21 29 15 78 -14 118 -85 220 -190 270 -68 33 -140 44 -202 31z
m122 -125 c68 -20 134 -91 134 -144 0 -21 -5 -21 -200 -21 -223 0 -217 -3
-180 70 23 45 71 84 120 98 50 14 70 14 126 -3z"/>
<path d="M6506 4939 l-26 -20 0 -325 c0 -311 1 -325 20 -344 28 -28 64 -25 89
6 20 26 21 38 21 341 l0 314 -25 24 c-29 30 -45 31 -79 4z"/>
<path d="M9645 4936 l-27 -27 4 -252 3 -252 30 -60 c42 -84 90 -116 184 -123
88 -6 149 10 208 55 25 19 46 33 48 31 8 -9 -16 -123 -32 -151 -46 -78 -189
-106 -298 -58 -57 26 -91 21 -107 -14 -18 -40 -3 -71 49 -97 42 -20 62 -23
168 -23 146 0 200 19 270 97 73 82 76 98 73 513 l-3 360 -29 14 c-26 12 -33
12 -55 0 l-26 -15 -5 -234 c-6 -251 -9 -268 -62 -317 -50 -47 -157 -59 -215
-23 -63 38 -67 59 -73 327 -3 141 -9 246 -15 252 -5 5 -22 13 -37 16 -21 5
-33 1 -53 -19z"/>
<path d="M12640 4939 c-25 -11 -64 -39 -87 -62 l-43 -41 0 41 c0 32 -5 46 -22
57 -33 23 -64 19 -87 -10 -20 -26 -21 -38 -21 -334 0 -296 1 -308 21 -334 25
-31 61 -34 89 -6 19 19 20 34 20 228 1 215 8 261 47 304 50 55 164 76 224 41
57 -34 63 -64 69 -326 5 -222 6 -240 24 -253 29 -20 60 -17 84 9 21 22 22 31
22 235 0 237 4 257 63 309 41 36 87 48 153 40 55 -6 99 -44 114 -96 5 -20 10
-134 10 -253 0 -205 1 -219 20 -238 26 -26 65 -25 91 1 20 20 21 28 16 272 -4
277 -9 302 -64 366 -45 53 -104 75 -185 69 -79 -5 -130 -29 -191 -90 -52 -52
-57 -55 -57 -33 0 27 -83 102 -125 114 -61 17 -135 13 -185 -10z"/>
</g>
</svg>
